# This file uses centimeters as units for non-parametric coordinates.

mtllib exitbutton.mtl
g default
v -0.519259 0.006736 0.019448
v 0.519259 0.006736 0.019448
v -0.519259 0.309438 0.019448
v 0.519259 0.309438 0.019448
v -0.519259 0.309438 -0.019448
v 0.519259 0.309438 -0.019448
v -0.519259 0.006736 -0.019448
v 0.519259 0.006736 -0.019448
vt -0.025391 -3.195313
vt 1.025391 -3.195313
vt -0.025391 -2.148438
vt 1.025391 -2.148438
vt -0.025391 -1.097656
vt 1.025391 -1.097656
vt -0.025391 -0.050781
vt 1.025391 -0.050781
vt -0.025391 1.000000
vt 1.025391 1.000000
vt 2.072266 -3.195313
vt 2.072266 -2.148438
vt -1.072266 -3.195313
vt -1.072266 -2.148438
vn 0.000000 0.000000 1.000000
vn 0.000000 0.000000 1.000000
vn 0.000000 0.000000 1.000000
vn 0.000000 0.000000 1.000000
vn 0.000000 1.000000 0.000000
vn 0.000000 1.000000 0.000000
vn 0.000000 1.000000 0.000000
vn 0.000000 1.000000 0.000000
vn 0.000000 0.000000 -1.000000
vn 0.000000 0.000000 -1.000000
vn 0.000000 0.000000 -1.000000
vn 0.000000 0.000000 -1.000000
vn 0.000000 -1.000000 0.000000
vn 0.000000 -1.000000 0.000000
vn 0.000000 -1.000000 0.000000
vn 0.000000 -1.000000 0.000000
vn 1.000000 0.000000 0.000000
vn 1.000000 0.000000 0.000000
vn 1.000000 0.000000 0.000000
vn 1.000000 0.000000 0.000000
vn -1.000000 0.000000 0.000000
vn -1.000000 0.000000 0.000000
vn -1.000000 0.000000 0.000000
vn -1.000000 0.000000 0.000000
s off
g pCube1
usemtl initialShadingGroup
f 1/1/1 2/2/2 4/4/3 3/3/4
f 3/3/5 4/4/6 6/6/7 5/5/8
f 5/5/9 6/6/10 8/8/11 7/7/12
f 7/7/13 8/8/14 2/10/15 1/9/16
f 2/2/17 8/11/18 6/12/19 4/4/20
f 7/13/21 1/1/22 3/3/23 5/14/24
