# Blender v2.75 (sub 0) OBJ File: ''
# www.blender.org
mtllib metal_goal_side.mtl
o Cube.000_Cube.006
v -0.912420 -0.055824 -0.038649
v -0.912420 -0.055824 0.079227
v 0.849800 -0.055825 0.079227
v -0.912419 1.917257 -0.038649
v -0.912419 1.917257 0.079227
v 0.849801 1.917257 -0.038649
v 0.849801 1.917257 0.079227
v 0.849800 -0.055825 -0.038649
vt -0.001951 0.462203
vt -0.016538 0.462203
vt -0.016538 0.037945
vt -0.016538 0.196162
vt -0.031124 0.196162
vt -0.031124 -0.069879
vt 0.012636 0.462203
vt -0.001951 0.037945
vt 0.500957 0.462203
vt 0.256797 0.462203
vt 0.256797 0.037946
vt 0.012636 0.037946
vt -0.016538 -0.069879
vt -0.031124 0.462203
vt 0.500957 0.037946
vn 0.000000 1.000000 0.000000
vn 1.000000 -0.000000 0.000000
vn 0.000000 -1.000000 0.000000
vn -1.000000 0.000000 0.000000
vn 0.000000 0.000000 -1.000000
vn -0.000000 -0.000000 1.000000
usemtl Material.004
s 1
f 1/1/1 2/2/1 3/3/1
f 4/4/2 5/5/2 2/6/2
f 6/7/3 7/1/3 5/8/3
f 8/5/4 3/4/4 7/2/4
f 2/9/5 5/10/5 7/11/5
f 4/12/6 1/11/6 8/10/6
f 8/8/1 1/1/1 3/3/1
f 1/13/2 4/4/2 2/6/2
f 4/12/3 6/7/3 5/8/3
f 6/14/4 8/5/4 7/2/4
f 3/15/5 2/9/5 7/11/5
f 6/7/6 4/12/6 8/10/6
