# Blender v2.75 (sub 0) OBJ File: ''
# www.blender.org
mtllib spaceball.mtl
o pSphere1
v 0.068075 0.056832 -0.057122
v 0.015431 0.056832 -0.087516
v 0.029002 0.101951 -0.164476
v 0.127940 0.101951 -0.107354
v -0.044433 0.056832 -0.076960
v -0.083507 0.101951 -0.144638
v -0.083507 0.056832 -0.030394
v -0.156942 0.101951 -0.057122
v -0.083507 0.056832 0.030394
v -0.156942 0.101951 0.057122
v -0.044433 0.056832 0.076960
v -0.083507 0.101951 0.144638
v 0.015431 0.056832 0.087516
v 0.029002 0.101951 0.164476
v 0.068075 0.056832 0.057122
v 0.127940 0.101951 0.107354
v 0.088866 0.056832 -0.000000
v 0.167014 0.101951 -0.000000
v 0.039074 0.171076 -0.221598
v 0.172373 0.171076 -0.144638
v -0.112508 0.171076 -0.194870
v -0.211447 0.171076 -0.076960
v -0.211447 0.171076 0.076960
v -0.112508 0.171076 0.194870
v 0.039074 0.171076 0.221598
v 0.172373 0.171076 0.144638
v 0.225017 0.171076 -0.000000
v 0.044433 0.255871 -0.251992
v 0.196015 0.255871 -0.164476
v -0.127940 0.255871 -0.221598
v -0.240448 0.255871 -0.087516
v -0.240448 0.255871 0.087516
v -0.127940 0.255871 0.221598
v 0.044433 0.255871 0.251992
v 0.196015 0.255871 0.164476
v 0.255880 0.255871 -0.000000
v 0.044433 0.346108 -0.251992
v 0.196015 0.346108 -0.164476
v -0.127940 0.346108 -0.221598
v -0.240448 0.346108 -0.087516
v -0.240448 0.346108 0.087516
v -0.127940 0.346108 0.221598
v 0.044433 0.346108 0.251992
v 0.196015 0.346108 0.164476
v 0.255880 0.346108 0.000000
v 0.039074 0.430903 -0.221598
v 0.172373 0.430903 -0.144638
v -0.112508 0.430903 -0.194870
v -0.211447 0.430903 -0.076960
v -0.211447 0.430903 0.076960
v -0.112508 0.430903 0.194870
v 0.039074 0.430903 0.221598
v 0.172373 0.430903 0.144638
v 0.225017 0.430903 0.000000
v 0.029002 0.500029 -0.164476
v 0.127940 0.500029 -0.107354
v -0.083507 0.500029 -0.144638
v -0.156942 0.500029 -0.057122
v -0.156942 0.500029 0.057122
v -0.083507 0.500029 0.144638
v 0.029002 0.500029 0.164476
v 0.127940 0.500029 0.107354
v 0.167014 0.500029 0.000000
v 0.015431 0.545147 -0.087516
v 0.068075 0.545147 -0.057122
v -0.044433 0.545147 -0.076960
v -0.083507 0.545147 -0.030394
v -0.083507 0.545147 0.030394
v -0.044433 0.545147 0.076960
v 0.015431 0.545147 0.087516
v 0.068075 0.545147 0.057122
v 0.088866 0.545147 0.000000
vt 0.000000 0.111111
vt 0.111111 0.111111
vt 0.111111 0.222222
vt 0.000000 0.222222
vt 0.222222 0.111111
vt 0.222222 0.222222
vt 0.333333 0.111111
vt 0.333333 0.222222
vt 0.444444 0.111111
vt 0.444444 0.222222
vt 0.555556 0.111111
vt 0.555556 0.222222
vt 0.666667 0.111111
vt 0.666667 0.222222
vt 0.777778 0.111111
vt 0.777778 0.222222
vt 0.888889 0.111111
vt 0.888889 0.222222
vt 1.000000 0.111111
vt 1.000000 0.222222
vt 0.111111 0.333333
vt 0.000000 0.333333
vt 0.222222 0.333333
vt 0.333333 0.333333
vt 0.444444 0.333333
vt 0.555556 0.333333
vt 0.666667 0.333333
vt 0.777778 0.333333
vt 0.888889 0.333333
vt 1.000000 0.333333
vt 0.111111 0.444444
vt 0.000000 0.444444
vt 0.222222 0.444444
vt 0.333333 0.444444
vt 0.444444 0.444444
vt 0.555556 0.444444
vt 0.666667 0.444444
vt 0.777778 0.444444
vt 0.888889 0.444444
vt 1.000000 0.444444
vt 0.111111 0.555556
vt 0.000000 0.555556
vt 0.222222 0.555556
vt 0.333333 0.555556
vt 0.444444 0.555556
vt 0.555556 0.555556
vt 0.666667 0.555556
vt 0.777778 0.555556
vt 0.888889 0.555556
vt 1.000000 0.555556
vt 0.111111 0.666667
vt 0.000000 0.666667
vt 0.222222 0.666667
vt 0.333333 0.666667
vt 0.444444 0.666667
vt 0.555556 0.666667
vt 0.666667 0.666667
vt 0.777778 0.666667
vt 0.888889 0.666667
vt 1.000000 0.666667
vt 0.111111 0.777778
vt 0.000000 0.777778
vt 0.222222 0.777778
vt 0.333333 0.777778
vt 0.444444 0.777778
vt 0.555556 0.777778
vt 0.666667 0.777778
vt 0.777778 0.777778
vt 0.888889 0.777778
vt 1.000000 0.777778
vt 0.111111 0.888889
vt 0.000000 0.888889
vt 0.222222 0.888889
vt 0.333333 0.888889
vt 0.444444 0.888889
vt 0.555556 0.888889
vt 0.666667 0.888889
vt 0.777778 0.888889
vt 0.888889 0.888889
vt 1.000000 0.888889
vn 0.261700 -0.852000 -0.453400
vn -0.090900 -0.852000 -0.515500
vn -0.401000 -0.852000 -0.336500
vn -0.523500 -0.852000 -0.000000
vn -0.401000 -0.852000 0.336500
vn -0.090900 -0.852000 0.515500
vn 0.261700 -0.852000 0.453400
vn 0.491900 -0.852000 0.179000
vn 0.491900 -0.852000 -0.179000
vn 0.392600 -0.619200 -0.680100
vn -0.136400 -0.619200 -0.773300
vn -0.601500 -0.619200 -0.504800
vn -0.785300 -0.619200 -0.000000
vn -0.601500 -0.619200 0.504800
vn -0.136400 -0.619200 0.773300
vn 0.392600 -0.619200 0.680100
vn 0.737900 -0.619200 0.268600
vn 0.737900 -0.619200 -0.268600
vn 0.473100 -0.323600 -0.819400
vn -0.164300 -0.323600 -0.931800
vn -0.724800 -0.323600 -0.608200
vn -0.946200 -0.323600 -0.000000
vn -0.724800 -0.323600 0.608200
vn -0.164300 -0.323600 0.931800
vn 0.473100 -0.323600 0.819400
vn 0.889100 -0.323600 0.323600
vn 0.889100 -0.323600 -0.323600
vn 0.500000 0.000000 -0.866000
vn -0.173600 0.000000 -0.984800
vn -0.766000 -0.000000 -0.642800
vn -1.000000 0.000000 0.000000
vn -0.766000 0.000000 0.642800
vn -0.173600 0.000000 0.984800
vn 0.500000 0.000000 0.866000
vn 0.939700 -0.000000 0.342000
vn 0.939700 0.000000 -0.342000
vn 0.473100 0.323600 -0.819400
vn -0.164300 0.323600 -0.931800
vn -0.724800 0.323600 -0.608200
vn -0.946200 0.323600 0.000000
vn -0.724800 0.323600 0.608200
vn -0.164300 0.323600 0.931800
vn 0.473100 0.323600 0.819400
vn 0.889100 0.323600 0.323600
vn 0.889100 0.323600 -0.323600
vn 0.392600 0.619200 -0.680100
vn -0.136400 0.619200 -0.773300
vn -0.601500 0.619200 -0.504800
vn -0.785300 0.619200 0.000000
vn -0.601500 0.619200 0.504800
vn -0.136400 0.619200 0.773300
vn 0.392600 0.619200 0.680100
vn 0.737900 0.619200 0.268600
vn 0.737900 0.619200 -0.268600
vn 0.261700 0.852000 -0.453400
vn -0.090900 0.852000 -0.515500
vn -0.401000 0.852000 -0.336500
vn -0.523500 0.852000 0.000000
vn -0.401000 0.852000 0.336500
vn -0.090900 0.852000 0.515500
vn 0.261700 0.852000 0.453400
vn 0.491900 0.852000 0.179000
vn 0.491900 0.852000 -0.179000
vn -0.000000 -1.000000 -0.000000
vn 0.000000 1.000000 0.000000
usemtl initialShadingGroup
s 1
f 1/1/1 2/2/1 3/3/1 4/4/1
f 2/2/2 5/5/2 6/6/2 3/3/2
f 5/5/3 7/7/3 8/8/3 6/6/3
f 7/7/4 9/9/4 10/10/4 8/8/4
f 9/9/5 11/11/5 12/12/5 10/10/5
f 11/11/6 13/13/6 14/14/6 12/12/6
f 13/13/7 15/15/7 16/16/7 14/14/7
f 15/15/8 17/17/8 18/18/8 16/16/8
f 17/17/9 1/19/9 4/20/9 18/18/9
f 4/4/10 3/3/10 19/21/10 20/22/10
f 3/3/11 6/6/11 21/23/11 19/21/11
f 6/6/12 8/8/12 22/24/12 21/23/12
f 8/8/13 10/10/13 23/25/13 22/24/13
f 10/10/14 12/12/14 24/26/14 23/25/14
f 12/12/15 14/14/15 25/27/15 24/26/15
f 14/14/16 16/16/16 26/28/16 25/27/16
f 16/16/17 18/18/17 27/29/17 26/28/17
f 18/18/18 4/20/18 20/30/18 27/29/18
f 20/22/19 19/21/19 28/31/19 29/32/19
f 19/21/20 21/23/20 30/33/20 28/31/20
f 21/23/21 22/24/21 31/34/21 30/33/21
f 22/24/22 23/25/22 32/35/22 31/34/22
f 23/25/23 24/26/23 33/36/23 32/35/23
f 24/26/24 25/27/24 34/37/24 33/36/24
f 25/27/25 26/28/25 35/38/25 34/37/25
f 26/28/26 27/29/26 36/39/26 35/38/26
f 27/29/27 20/30/27 29/40/27 36/39/27
f 29/32/28 28/31/28 37/41/28 38/42/28
f 28/31/29 30/33/29 39/43/29 37/41/29
f 30/33/30 31/34/30 40/44/30 39/43/30
f 31/34/31 32/35/31 41/45/31 40/44/31
f 32/35/32 33/36/32 42/46/32 41/45/32
f 33/36/33 34/37/33 43/47/33 42/46/33
f 34/37/34 35/38/34 44/48/34 43/47/34
f 35/38/35 36/39/35 45/49/35 44/48/35
f 36/39/36 29/40/36 38/50/36 45/49/36
f 38/42/37 37/41/37 46/51/37 47/52/37
f 37/41/38 39/43/38 48/53/38 46/51/38
f 39/43/39 40/44/39 49/54/39 48/53/39
f 40/44/40 41/45/40 50/55/40 49/54/40
f 41/45/41 42/46/41 51/56/41 50/55/41
f 42/46/42 43/47/42 52/57/42 51/56/42
f 43/47/43 44/48/43 53/58/43 52/57/43
f 44/48/44 45/49/44 54/59/44 53/58/44
f 45/49/45 38/50/45 47/60/45 54/59/45
f 47/52/46 46/51/46 55/61/46 56/62/46
f 46/51/47 48/53/47 57/63/47 55/61/47
f 48/53/48 49/54/48 58/64/48 57/63/48
f 49/54/49 50/55/49 59/65/49 58/64/49
f 50/55/50 51/56/50 60/66/50 59/65/50
f 51/56/51 52/57/51 61/67/51 60/66/51
f 52/57/52 53/58/52 62/68/52 61/67/52
f 53/58/53 54/59/53 63/69/53 62/68/53
f 54/59/54 47/60/54 56/70/54 63/69/54
f 56/62/55 55/61/55 64/71/55 65/72/55
f 55/61/56 57/63/56 66/73/56 64/71/56
f 57/63/57 58/64/57 67/74/57 66/73/57
f 58/64/58 59/65/58 68/75/58 67/74/58
f 59/65/59 60/66/59 69/76/59 68/75/59
f 60/66/60 61/67/60 70/77/60 69/76/60
f 61/67/61 62/68/61 71/78/61 70/77/61
f 62/68/62 63/69/62 72/79/62 71/78/62
f 63/69/63 56/70/63 65/80/63 72/79/63
f 2/2/64 1/19/64 17/17/64 15/15/64 13/13/64 11/11/64 9/9/64 7/7/64 5/5/64
f 64/71/65 66/73/65 67/74/65 68/75/65 69/76/65 70/77/65 71/78/65 72/79/65 65/72/65
